/* XPM */
static char *essai[] = {
/* width height num_colors chars_per_pixel */
"    48    48       26            1",
/* colors */
". c #ffcc00",
"# c #ff9900",
"a c #ff6600",
"b c #ff3300",
"c c #ff0000",
"d c #cccc00",
"e c #cc9966",
"f c #cc9933",
"g c #cc9900",
"h c #cc6666",
"i c #cc6633",
"j c #cc6600",
"k c #cc3333",
"l c #cc3300",
"m c #cc0000",
"n c #996666",
"o c #996633",
"p c #996600",
"q c #993366",
"r c #993333",
"s c #993300",
"t c #990000",
"u c #663300",
"v c #660000",
"w c #330000",
"x c #000000",
/* pixels */
"ihhihhihhihhihhihhihhihhihhihhihhihhihhihhihhihi",
"iohhiehiehiehiehiehiehiehiehiehiehiehiehiehiehho",
"hoihnihhihhihhohhinhihnihhohhihhihhihhihhihhioor",
"ihohihfnhfheiehiehieihfhiehiehfheiehfheiehfhhiro",
"oiohstmllmtttjlsvvvtljdgjtvvttttvvwwwvllvtjhorro",
"nhiitvttmmmmlbjvwvvla..asvwvtttwwwwxxwbbttajoror",
"iohotvvvtmlbaaaltll#..#lvwvvttvwxxwxwwmblmaaroro",
"inihtvwwwtmla##aa#a###atvwttvvwwxxwxxxvmbcaarkor",
"ihoimvwwwwvtl##aaalbbllvvvtvvwxwxwxwxwwmbbaaoror",
"ohinmvwxxxwvsaalltttlmvvvtvwwwwwxxxwxwwtmb#aoror",
"iniitvwwxxwwmaalmtvvtttvvvwwxxwwxwxwwwvttl##riro",
"ohohvvwwwwvvla#blmttttttvwxxwxwwxxxxwvvvwtaaoror",
"inihvtvtvvtmb###aajbltvvwwxxxwxxxwxwwvvwwvaaroro",
"ihoittmmllla#..#aaa#amvwwxxxxwwxxxwwvvwwwvjaokor",
"oiholclaaa##...alla##altwwxxxwxxxxwwvwwxxvaarror",
"inihlba#..#...#lmttj##ajvwxxwwwxwwwvvwxxwvjaoror",
"ihoij#####.##lltvvtl#..#lvvvvvvvsslltvvvvlaaroko",
"iohhg##ala.#amtttvtl#..#ajllllljbaaajlllla##oror",
"hoio#almma##bmttlmla###..#jbaa###llbbjbjba##roro",
"ihohgammmj##bccmlaa###a..alutsa#alvtststsla#iror",
"ohinlbcba##acbcba##aaaa#.jvwwvl#altvvvvwwtjaroro",
"iohittla##almbcbbabababa#jvxxwmaaastvwvwwvaarkor",
"hiohvtl##ammbbmmcbbbllmlalvxxvmba#blmtvwwvajoror",
"ninitmj#almmbbcmlbabmttmajvxxwtmb##abltwwvaaroro",
"iihola#almmlabbbbaamttsbalvxxvtmb##blbbvwtaarokr",
"ohohg#abmmmbbcbbbllttmb##jvxxwtla#lttbbtvtaaroro",
"iningbltmbcbbbcbtvwvmbbaajvwxwta#bmvvcactmaaoror",
"hiiijltmlbbcccmctwwvmcmmaatwxwlaabvvvl#bcb#aroro",
"ohnigabbbbbcbccmtwvtlbmlb#ltvtl#amvwvb#bmmb#rirr",
"inihj##bcbbmcbmttvvtmbbba##aalb##btvtlabttcaroro",
"iinima#aabbmcmtvvttvtttlljaa#.####bbcaaltvmcoror",
"niohla#..aabltvvvvvvwwwwvvmlballja#bmbbmvvlcokro",
"ihohja##..#amtvvvvwxwxxxwvtmmcmttb#lmmcmvvalroro",
"iohilmba#.##ablmtwwxxxxxwtcmttmttc#ablbbmmaboror",
"hoinmba##ajbj#alswxxxxxwvmmvvvmbcmlaa#a#aa#aorir",
"hohitbaaaltvtlabvwxxxxxvtmtwwvtblvvtbaaaaaa#orro",
"iinitcbaamwwwsjbsvwxxwvtctvxxwsbmwxvlbmmlmtboror",
"ininmbbaalwwwtjamtvvwvtctwwxxxvlbvwvmmvvmmtmroro",
"ihoilabbbtvvtlabmtttmmctvwxxxxvmbtwvcmvwtcbmorko",
"inihjammbmtmmbblvvvtmmtwxxxxxxxtblvwmmvxwmacoror",
"ihohjbsmbblcmmcmvxwvvvwwxwwwxwwvlbvwtmvwwtaaroro",
"iniigammbablmmmltvvvtvvvvvvvvvvtbatwtcmvvtbairor",
"iohn.##a#.#aabaaajajaaalaaaaaaaa##mttmcbmbbbroro",
"niiohd####.#aaaaaabjalaalajajjaja##mtvmcbmcarkor",
"iniqrrrrrrrrrrrrorrrrrrrrsrrrrrrrrrrorrrrrosroro",
"hoiprprsrprprprsrsosrprsrrsrsrsrsosrsrsosrrsrsor",
"iorrrrrorrrrrrrorsrrrsrosorsorprrsrosorsrprorrso",
"irsrprsrsosrprsrrsosorsrrsrrsrrsorsrrsorrrsrprrr"
};
