/* XPM */
static const char *flAppTarget_xpm[] = {
/* width height ncolors chars_per_pixel */
"16 16 6 1",
/* colors */
"a c #606060",
"b c #20ffff",
"c c none",
"d c #d0d0d0",
"e c #80ffff",
"f c #d0d0d0",
/* pixels */
"cccccccccccccccc",
"cccccccccccccccc",
"ffffffffffffffff",
"feebbbbbbbeebeea",
"feebbbbbbbeebeea",
"fdddddddddddddda",
"fdddddddddddddda",
"fdddddddddddddda",
"fdddddddddddddda",
"fdddddddddddddda",
"fdddddddddddddda",
"fdddddddddddddda",
"fdddddddddddddda",
"faaaaaaaaaaaaaaa",
"cccccccccccccccc",
"cccccccccccccccc"
};
