/* XPM */
static const char *flDependency_xpm[] = {
/* width height ncolors chars_per_pixel */
"16 16 7 1",
/* colors */
"a c #aaaaaa",
"b c #99ffff",
"c c none",
"d c #eeeeee",
"e c #ccffff",
"f c #eeeeee",
". c #ff2222",
/* pixels */
"cccccccccccccccc",
"cccccccccccccccc",
"ffffffffffffffff",
"feebbbbbbbeebeea",
"feebbbbbbbeebeea",
"fddddddddd...dda",
"fddddddddd...dda",
"fdddd.dddd...dda",
"fddd..dddd...dda",
"fdd...dddd...dda",
"fd..........ddda",
"f..........dddda",
"fd........ddddda",
"faa...aaaaaaaaaa",
"cccc..cccccccccc",
"ccccc.cccccccccc"
};
