/* XPM */
static const char *flMenuAll_xpm[] = {
/* width height ncolors chars_per_pixel */
"12 9 5 1",
/* colors */
". c none",
"a c #000000",
"b c #c0c0c0",
"c c #000044",
"' c #202080",
/* pixels */
"............",
"......cc....",
"......cc....",
".....cc.....",
".....cc.....",
"....cc......",
"cc..cc......",
".cccc.......",
"..ccc.......",
"............",
};
