/* XPM */
static const char *flMenuMulti_xpm[] = {
/* width height ncolors chars_per_pixel */
"12 9 5 1",
/* colors */
". c none",
"a c #000000",
"b c #c0c0c0",
"c c #000044",
"' c #202080",
/* pixels */
"............",
"............",
"............",
".ccc....c...",
"cc.ccc.cc...",
"c....ccc....",
"............",
"............",
"............",
"............",
};
