/* XPM */
static const char *flWorkspace_xpm[] = {
/* width height ncolors chars_per_pixel */
"16 16 6 1",
/* colors */
"a c #8899ff",
"b c #ddeeff",
"c c none",
"d c #ffffff",
"e c #333300",
"f c #000000",
/* pixels */
"aaaaaaaaaaaaaaac",
"aaaaaaaaaaaaaaac",
"abbbbbbabbaaaaac",
"abbbbbbabbaaaaac",
"abbaaaaabbaaaaac",
"abbaaaaabbaaaaac",
"abbbbbaabbaaaaac",
"abbbbbaabbaaaaac",
"abbaaaaabbaaaaac",
"abbaaaaabbaaaaac",
"abbaaaaabbaaaaac",
"abbaaaaabbbbbbac",
"abbaaaaabbbbbbac",
"aaaaaaaaaaaaaaac",
"aaaaaaaaaaaaaaac",
"cccccccccccccccc"
};
