/* XPM */
char *pause_buttons256[] = {
/* width height num_colors chars_per_pixel */
"    20    60       44            1",
/* colors */
". c #000000",
"# c #808080",
"a c #c0dcc0",
"b c #a6caf0",
"c c #2a5f55",
"d c #2a7f55",
"e c #2a7faa",
"f c #553f55",
"g c #555f55",
"h c #555faa",
"i c #557f55",
"j c #557faa",
"k c #559f55",
"l c #559faa",
"m c #55bfaa",
"n c #7f5f55",
"o c #7f7f55",
"p c #7f7faa",
"q c #7f9f55",
"r c #7f9faa",
"s c #7fbfaa",
"t c #7fbfff",
"u c #7fdfaa",
"v c #7fdfff",
"w c #aa7f55",
"x c #aa9f55",
"y c #aa9faa",
"z c #aabfaa",
"A c #aadfff",
"B c #d4bfaa",
"C c #d4dfaa",
"D c #d4dfff",
"E c #ffdfaa",
"F c #ffdfff",
"G c #ccccff",
"H c #99ffff",
"I c #ccffff",
"J c #2a1f00",
"K c #2a1f55",
"L c #2a3f00",
"M c #2a3f55",
"N c #fffbf0",
"O c #a0a0a4",
"P c #ffffff",
/* pixels */
"#MJK.Lg##O###gJJMg##",
"MKJJ#yyzyzzyOOOgKKgh",
"JJM#OOOOyOyOOOO#oMMg",
"KJ#OyzzBzBBzBzOOO#Jg",
".gOOOyBzBazBzOOx##gK",
"MOOzzBa..aD..BzyOO#L",
"g#OyyzaJJEaJJBzO###g",
"#yzyaBG..DF..aBBzO##",
"#OOOBBaJJaCJKzzO#o#o",
"OOOzzaD..PF..aBzyO##",
"#xOyyBaJJaaJJBOO#o#o",
"OOOyBaa..FN..aBzOO##",
"o##OOyBJJazJJyO#ooog",
"gOOOzza..aa..zzOO##g",
"J#q##OOOOyOOOx##oooM",
"KgOOOOOzBzzzOOOx##gg",
"gLn#o#####w#o#oinifO",
"nMf#OxOOxOO#O####fOz",
"gogLg#oo#ooooooggOzO",
"g###MJg######fMgyzO#",
"#MJK.Kg##r###cJJMg##",
"MK.J#rOrOOOOrOrgKKgh",
"JJM##rOOrOrrOp##iMMg",
"JK#rOzyzzzzzzOOrOgKg",
".g#rOOzzbyzyyrr###gK",
"KrOOzzb..Ga..ayOrp#L",
"g#rryyzJJbaKJyrr###f",
"#OOyzaD..DD..bayrrj#",
"#rrOObzJJbaJJzrr##g#",
"rOOzzaG..DD..bzyrrp#",
"##prOyzJJabJJyrrpg#g",
"#rOOyab..DD..bzOr#j#",
"###rrOyJJzzJJrpp##gg",
"MrrOOzb..bb..zrr#j#M",
"J###p#rrrOrrpp###ggM",
"Kg##rrOOyrOOOrp#j#gg",
"gJh####j####jgigggMO",
"gfM##p#rpp###pp#jfOy",
"#ifMgg#g#gihgggMfOzO",
"gn#gMMM##j###MMnOOO#",
"#MJK.LcjlrrljgM.Mg##",
"MKJJlrsssssrsrriKKgh",
"J.MlrrrsrsrssrllkMMg",
"JMlrssszzbszsssrriMg",
".irrsssbssbsssrlllcK",
"Mrsszba..ba..bssrrlM",
"crrrsstJJAvJJtsslllc",
"rssszba..aI..ubssrl#",
"lrrssbbJJHvJJvmmllji",
"rrssbub..IA..bbsrlll",
"llrrssvJJvHJJvmmlljj",
"rrsszba..AA..utsrlll",
"jlrlsstJJvuJKmllljid",
"crrssss..bv..bsslllc",
"M#jllrmsmmsmllljjdjM",
"Jdlrrssstsssssllljcg",
"gKiljlllllljlejieiMO",
"gfMlllrlrlllllljjcOy",
"#igMcijjjjjijeicfOzO",
"gn#nMMckjkljjcMgOyO#"
};
