/* XPM */
char *play_buttons256[] = {
/* width height num_colors chars_per_pixel */
"    20    60       45            1",
/* colors */
". c #000000",
"# c #808080",
"a c #c0dcc0",
"b c #a6caf0",
"c c #2a5f55",
"d c #2a5faa",
"e c #2a7f55",
"f c #2a7faa",
"g c #553f55",
"h c #555f55",
"i c #555faa",
"j c #557f55",
"k c #557faa",
"l c #559f55",
"m c #559faa",
"n c #55bfaa",
"o c #55bfff",
"p c #7f5f55",
"q c #7f7f55",
"r c #7f7faa",
"s c #7f9f55",
"t c #7f9faa",
"u c #7fbfaa",
"v c #7fbfff",
"w c #7fdfaa",
"x c #7fdfff",
"y c #aa9f55",
"z c #aa9faa",
"A c #aabfaa",
"B c #aadfaa",
"C c #aadfff",
"D c #d4bfaa",
"E c #d4bfff",
"F c #d4dfff",
"G c #ffdfaa",
"H c #ffdfff",
"I c #ccccff",
"J c #99ffff",
"K c #ccffff",
"L c #2a1f00",
"M c #2a1f55",
"N c #2a3f00",
"O c #2a3f55",
"P c #fffbf0",
"Q c #a0a0a4",
/* pixels */
"#gMLLMh##Q###hLMOh#r",
"hMLM#QAzAzAQQQQhLOh#",
"MLO#QQQzAzQQQ####gg#",
"LN#AAADaDDDDAAQQQhOh",
".#QQzDALaaAAzQy#q#hO",
"MQQDAaE..FaaDAAzQ##N",
"hQQADDaLLLGaDAQ###qg",
"#QADaaF....HaDDAQ###",
"#QQADaPLLMLLaAQ#s#qh",
"QQADaEP......aDAQ###",
"#QzADDaLLLLLDAQ#q#qp",
"QQzDaaF....FaDDQQ###",
"q#QQzDDLMLaDzQ##qqhh",
"hQQAAaa..aaDAAAQ###h",
"N###QQzLAzQQQ#qqqjpO",
"ghQQQzAAADAAyQQ###hh",
"hOq#s###Q##q#qqhphgQ",
"#hg#QQQQyQQ######h#A",
"##hghqqq#qqqqpjhgQaz",
"p##qgOh######hghQAQ#",
"#hML.Lh#####hgLLgh#r",
"gMLO#tQQQAQtQtthMOh#",
"OLO#tQQtQtQtt###hgO#",
"LL#QQzAAaaAAQQttthOh",
".itQQAAMAzzzQt####gO",
"O#QAAba..FFaAAQt###M",
"hQtzAAbLLLabzQt#k#jO",
"#QzAIaF....FabAQt###",
"#ttAAbaLMLLLAQtr#hih",
"tQzAaIF......bAtt###",
"#ttzzAbLLLMLAQt###hh",
"#QQAaaF....IbAQtk#k#",
"##ttQzALLMAuQrr#hhhh",
"OtQQAbb..abAzttr#r#O",
"O###r#tLtQttr###hhhO",
"NhtttQAzzQQQtt#k#kgh",
"hOh###krkr##h#hhhhOQ",
"#hg#r#t#t#r#r#k#ig#A",
"##hOh#h#h#hhhhhcg#AQ",
"h##qgOO##k#k#OOhQAz#",
"#gML.Ocmmtm#kcLMgh#r",
"hMLOmtuQuuuuttteMOh#",
"MLO#tutuuututtmmjOO#",
"LOmuuuAbAbAuuutttjOh",
".jttuAbLbwbuuttmmkcO",
"OtuAbAb..babbuuttmtO",
"ctuuuwbLLLbxuuummkjc",
"tuubabK....abbuutmmk",
"mttuubCLLMLLxwnmmkjj",
"tuubaCa......bvummmk",
"mttubwJMLLLLxunmmjke",
"tuuuBbb....Cwxuummkk",
"kmtuuuxLLMxwommmkjfe",
"ctutbub..Bxbuutmmk#c",
"O#mmmunLonunmmmkjfeO",
"Oettuuuvuuutummmmkch",
"hOkmmmmmmmmmkkfjdegQ",
"#hO#mmtmtmmmmmkmjc#A",
"q#hOckkkkkkjdjecgQAQ",
"####hOclmlkkkcOhQzQ#"
};
