/* XPM */
static const char * file_small2[] = {
"15 18 5 1",
" 	c None",
".	c #848484",
"+	c #FFFFFF",
"@	c #C6C6C6",
"#	c #000000",
"               ",
" ..........    ",
" .++++++++@.   ",
" .+@......@+.  ",
" .++++++++...# ",
" .+@.......+@# ",
" .++++++++++@# ",
" .+@.......+@# ",
" .++++++++++@# ",
" .+@.......+@# ",
" .++++++++++@# ",
" .+@.......+@# ",
" .++++++++++@# ",
" .+@.......+@# ",
" .++++++++++@# ",
" .@@@@@@@@@@@# ",
"  ############ ",
"               "};
