/* XPM */
static const char * file_small[] = {
"16 16 7 1",
" 	c None",
".	c #000000000000",
"X	c #CF3CCF3CFFFF",
"o	c #AEBADB6CE79D",
"O	c #659565959A69",
"+	c #9A699A69CF3C",
"@	c #DF7DDF7DDF7D",
"                ",
"                ",
"                ",
"      .         ",
"     .X..       ",
"    .XXXX..     ",
"   .Xoooooo..   ",
"  .Xooooooooo.. ",
" .XoooooooooooX.",
".XXXXXXXXXXXXX.O",
" .XXXXXXXXXXX.+O",
"  ..XXXXXX@X.+.O",
"   ...+++++..O  ",
"    .+..OO.O    ",
"     .X+..O     ",
"      .. O      "};
