/* XPM */
static const char * recycle_xpm[] = {
"14 14 6 1",
" 	c #FFFFFF",
"X	c #000000",
"Y	c #444444",
"x	c #888888",
"-	c #BBBBBB",
".	c #CCCCCC",
"       Y.     ",
"  .x- xX      ",
" -Yx xXXXx-   ",
".YX xXXXXXXx  ",
"xXXx xXXXXXX- ",
"YXX.  xX xXXY ",
"XXX    Y. XXX ",
"XXX .Y    XXX ",
"YXXx Xx  .XXY ",
"-XXXXXXx xXXx ",
" xXXXXXXx XY. ",
"  -xXXXx xY-  ",
"     Xx -x.   ",
"    .Y        "};
