#define browser_plus_width 9
#define browser_plus_height 9
static unsigned char browser_plus_bits[] = {
   0xff, 0x01, 0x01, 0x01, 0x11, 0x01, 0x11, 0x01, 0x7d, 0x01, 0x11, 0x01,
   0x11, 0x01, 0x01, 0x01, 0xff, 0x01};
